<?xml version="1.0" standalone="no"?><!DOCTYPE svg PUBLIC "-//W3C//DTD SVG 1.1//EN" "http://www.w3.org/Graphics/SVG/1.1/DTD/svg11.dtd"><svg class="icon" style="" viewBox="0 0 1024 1024" version="1.1" xmlns="http://www.w3.org/2000/svg" p-id="2761" xmlns:xlink="http://www.w3.org/1999/xlink" width="200" height="200"><defs><style type="text/css"><![CDATA[
@font-face { font-family: uc-nexus-iconfont; src: url("chrome-extension://pogijhnlcfmcppgimcaccdkmbedjkmhi/res/font_kcuuxxyze2hjjor.woff") format("woff"), url("chrome-extension://pogijhnlcfmcppgimcaccdkmbedjkmhi/res/font_kcuuxxyze2hjjor.ttf") format("truetype"); }

]]></style></defs><path d="M741.4 462.5h56v63.2h-56zM629.2 462.5h56v63.2h-56zM517.1 462.5h56v63.2h-56zM405 462.5h56v63.2h-56zM292.9 462.5h56v63.2h-56zM180.7 462.5h56v63.2h-56z" fill="#ffffff" p-id="2762"></path><path d="M898.2 434.5h-54.3l12-196.4c1.5-23.1-6.7-46-22.5-62.9s-38.2-26.6-61.4-26.6H239.3c-23.2 0-45.6 9.7-61.4 26.6-15.8 16.9-24 39.8-22.5 62.9l12 196.4H99.5c-21 0-38 17-38 38V605c0 21 17 38 38 38h82l6.4 81.1c2.8 41.2 21 79.5 51.1 107.7 30.2 28.3 69.7 43.8 111 43.8h311.1c41.4 0 80.8-15.6 111-43.8 19.1-17.9 33.4-39.8 42.1-64h51.6c48.7 0 88.5-38.7 90.3-87h0.1V492.5c0-32-26-58-58-58z m-374.9-230c-7 6.3-13.9 9.2-17.7 9.2-3.8 0-10.7-2.9-17.7-9.2h35.4z m-101 0c4.4 13.3 12.6 26.3 23.9 37.6 9.5 9.5 20.3 16.9 31.4 21.5v45.8h56v-45.8c11.1-4.7 21.9-12 31.4-21.5 11.3-11.3 19.5-24.3 23.9-37.6h73.7c-0.1 0.4-0.1 0.9-0.2 1.3-0.1 0.5-0.2 1.1-0.2 1.6-0.1 0.8-0.2 1.5-0.4 2.2l-0.3 1.5c-0.1 0.8-0.3 1.6-0.5 2.4-0.1 0.4-0.2 0.9-0.3 1.3l-0.6 2.7c-0.1 0.3-0.1 0.6-0.2 1-0.6 2.5-1.2 4.9-1.9 7.4l-0.3 0.9c-0.3 0.9-0.5 1.8-0.8 2.7-0.1 0.4-0.3 0.8-0.4 1.2-0.3 0.8-0.5 1.6-0.8 2.4-0.1 0.4-0.3 0.9-0.4 1.3-0.3 0.8-0.5 1.5-0.8 2.3-0.2 0.4-0.3 0.9-0.5 1.3-0.3 0.7-0.6 1.5-0.8 2.2-0.2 0.4-0.3 0.9-0.5 1.3-0.3 0.7-0.6 1.5-0.9 2.2-0.2 0.4-0.4 0.9-0.5 1.3-0.3 0.7-0.6 1.5-1 2.2-0.2 0.4-0.4 0.8-0.5 1.2-0.3 0.8-0.7 1.5-1.1 2.3-0.2 0.4-0.3 0.7-0.5 1.1-0.4 0.8-0.8 1.6-1.2 2.5-0.1 0.3-0.3 0.6-0.4 0.8-0.5 1-1 2-1.6 3 0 0.1-0.1 0.2-0.1 0.3-1.2 2.2-2.5 4.4-3.8 6.5-0.1 0.2-0.2 0.4-0.4 0.6-0.5 0.9-1 1.7-1.6 2.5l-0.6 0.9c-0.5 0.7-1 1.5-1.5 2.2-0.2 0.3-0.4 0.6-0.7 1-0.5 0.7-1 1.4-1.4 2.1-0.2 0.3-0.5 0.7-0.7 1-0.5 0.7-1 1.3-1.5 2-0.2 0.3-0.5 0.7-0.8 1-0.5 0.7-1 1.3-1.5 1.9-0.3 0.3-0.5 0.7-0.8 1-0.5 0.7-1 1.3-1.6 2-0.2 0.3-0.5 0.6-0.7 0.9-0.6 0.7-1.1 1.3-1.7 2-0.2 0.3-0.5 0.5-0.7 0.8-0.6 0.7-1.3 1.5-1.9 2.2-0.2 0.2-0.3 0.4-0.5 0.6-2.5 2.8-5.1 5.4-7.8 8-0.2 0.2-0.4 0.3-0.5 0.5-0.7 0.7-1.4 1.3-2.1 2-0.3 0.2-0.5 0.5-0.8 0.7-0.6 0.6-1.3 1.2-2 1.7-0.3 0.3-0.6 0.5-0.9 0.8-0.6 0.5-1.3 1.1-1.9 1.6-0.3 0.3-0.7 0.5-1 0.8-0.6 0.5-1.3 1-1.9 1.5-0.3 0.3-0.7 0.5-1 0.8-0.6 0.5-1.3 1-1.9 1.5-0.3 0.3-0.7 0.5-1 0.8-0.7 0.5-1.3 1-2 1.4-0.3 0.2-0.7 0.5-1 0.7l-2.1 1.5-0.9 0.6c-0.8 0.5-1.6 1-2.4 1.6-0.2 0.2-0.5 0.3-0.7 0.5-2.1 1.3-4.2 2.6-6.4 3.9-0.1 0.1-0.2 0.1-0.3 0.2-1 0.5-1.9 1.1-2.9 1.6-0.3 0.2-0.6 0.3-0.9 0.5-0.8 0.4-1.6 0.8-2.3 1.2-0.4 0.2-0.8 0.4-1.1 0.6-0.7 0.4-1.4 0.7-2.2 1.1l-1.2 0.6c-0.7 0.3-1.4 0.7-2.1 1-0.4 0.2-0.9 0.4-1.3 0.6l-2.1 0.9c-0.4 0.2-0.9 0.4-1.4 0.6l-2.1 0.9c-0.5 0.2-0.9 0.4-1.4 0.5-0.7 0.3-1.4 0.6-2.2 0.8-0.4 0.2-0.9 0.3-1.3 0.5-0.8 0.3-1.5 0.5-2.3 0.8-0.4 0.1-0.8 0.3-1.3 0.4-0.8 0.3-1.7 0.6-2.5 0.8-0.3 0.1-0.7 0.2-1 0.3-1.2 0.4-2.3 0.7-3.5 1h-0.1c-1.2 0.3-2.4 0.7-3.7 1-0.3 0.1-0.6 0.2-1 0.2-0.9 0.2-1.8 0.4-2.7 0.7-0.4 0.1-0.9 0.2-1.3 0.3-0.8 0.2-1.6 0.3-2.3 0.5l-1.5 0.3c-0.7 0.1-1.5 0.3-2.2 0.4-0.5 0.1-1 0.2-1.6 0.3-0.7 0.1-1.5 0.2-2.2 0.4-0.5 0.1-1.1 0.2-1.6 0.2-0.7 0.1-1.4 0.2-2.2 0.3-0.5 0.1-1.1 0.1-1.6 0.2-0.7 0.1-1.5 0.2-2.2 0.3-0.5 0.1-1.1 0.1-1.6 0.2-0.7 0.1-1.5 0.1-2.3 0.2-0.5 0-1.1 0.1-1.6 0.1-0.8 0.1-1.6 0.1-2.4 0.1-0.5 0-1 0.1-1.5 0.1-0.9 0-1.7 0.1-2.6 0.1h-10.4c-0.9 0-1.7-0.1-2.6-0.1-0.5 0-1-0.1-1.5-0.1-0.8 0-1.6-0.1-2.4-0.1-0.5 0-1.1-0.1-1.6-0.1-0.8-0.1-1.5-0.1-2.3-0.2-0.5-0.1-1.1-0.1-1.6-0.2-0.7-0.1-1.5-0.2-2.2-0.3-0.5-0.1-1.1-0.1-1.6-0.2-0.7-0.1-1.5-0.2-2.2-0.3-0.5-0.1-1.1-0.2-1.6-0.2-0.7-0.1-1.5-0.2-2.2-0.4-0.5-0.1-1-0.2-1.6-0.3-0.7-0.1-1.5-0.3-2.2-0.4l-1.5-0.3c-0.8-0.2-1.6-0.3-2.3-0.5-0.4-0.1-0.9-0.2-1.3-0.3-0.9-0.2-1.8-0.4-2.7-0.7-0.3-0.1-0.6-0.2-1-0.2-1.2-0.3-2.4-0.6-3.7-1h-0.1c-1.2-0.3-2.3-0.7-3.5-1-0.3-0.1-0.7-0.2-1-0.3-0.8-0.3-1.7-0.5-2.5-0.8-0.4-0.1-0.8-0.3-1.3-0.4-0.8-0.3-1.5-0.5-2.3-0.8-0.4-0.2-0.9-0.3-1.3-0.5-0.7-0.3-1.4-0.5-2.2-0.8-0.5-0.2-0.9-0.4-1.4-0.5l-2.1-0.9c-0.5-0.2-0.9-0.4-1.4-0.6l-2.1-0.9c-0.4-0.2-0.9-0.4-1.3-0.6-0.7-0.3-1.4-0.7-2.1-1l-1.2-0.6c-0.7-0.4-1.4-0.7-2.2-1.1-0.4-0.2-0.8-0.4-1.1-0.6-0.8-0.4-1.6-0.8-2.3-1.2-0.3-0.2-0.6-0.3-0.9-0.5-1-0.5-1.9-1.1-2.9-1.6-0.1-0.1-0.2-0.1-0.3-0.2-2.2-1.2-4.3-2.5-6.4-3.9-0.2-0.2-0.5-0.3-0.7-0.5-0.8-0.5-1.6-1-2.4-1.6l-0.9-0.6-2.1-1.5c-0.3-0.2-0.7-0.5-1-0.7-0.7-0.5-1.3-1-2-1.4-0.3-0.3-0.7-0.5-1-0.8-0.6-0.5-1.3-1-1.9-1.5-0.3-0.3-0.7-0.5-1-0.8-0.6-0.5-1.3-1-1.9-1.5-0.3-0.3-0.7-0.5-1-0.8-0.6-0.5-1.3-1.1-1.9-1.6-0.3-0.3-0.6-0.5-0.9-0.8-0.7-0.6-1.3-1.1-1.9-1.7-0.3-0.2-0.5-0.5-0.8-0.7-0.7-0.7-1.4-1.3-2.1-2-0.2-0.2-0.4-0.3-0.6-0.5-2.7-2.6-5.3-5.2-7.8-8-0.2-0.2-0.3-0.4-0.5-0.6-0.6-0.7-1.3-1.4-1.9-2.2-0.2-0.3-0.5-0.5-0.7-0.8-0.6-0.7-1.1-1.3-1.7-2-0.3-0.3-0.5-0.6-0.8-0.9-0.5-0.6-1-1.3-1.6-1.9-0.3-0.3-0.5-0.7-0.8-1-0.5-0.6-1-1.3-1.5-1.9-0.3-0.3-0.5-0.7-0.8-1-0.5-0.7-1-1.3-1.4-2-0.2-0.3-0.5-0.7-0.7-1-0.5-0.7-1-1.4-1.4-2.1-0.2-0.3-0.4-0.7-0.7-1-0.5-0.7-1-1.5-1.5-2.2l-0.6-0.9c-0.5-0.8-1.1-1.7-1.6-2.5-0.1-0.2-0.3-0.4-0.4-0.6-1.3-2.1-2.6-4.3-3.8-6.5-0.1-0.1-0.1-0.2-0.2-0.3-0.5-1-1.1-2-1.6-3-0.1-0.3-0.3-0.6-0.4-0.9l-1.2-2.4c-0.2-0.4-0.3-0.7-0.5-1.1-0.4-0.7-0.7-1.5-1.1-2.3-0.2-0.4-0.4-0.8-0.5-1.2-0.3-0.7-0.6-1.5-1-2.2-0.2-0.4-0.4-0.9-0.5-1.3-0.3-0.7-0.6-1.4-0.9-2.2-0.2-0.4-0.3-0.9-0.5-1.3-0.3-0.7-0.6-1.5-0.8-2.2-0.2-0.4-0.3-0.9-0.5-1.3-0.3-0.7-0.5-1.5-0.8-2.2-0.1-0.4-0.3-0.9-0.4-1.3-0.3-0.8-0.5-1.6-0.8-2.4-0.1-0.4-0.3-0.8-0.4-1.2-0.3-0.9-0.5-1.8-0.8-2.7l-0.3-0.9c-0.7-2.4-1.3-4.9-1.9-7.3-0.1-0.3-0.1-0.7-0.2-1l-0.6-2.7c-0.1-0.5-0.2-0.9-0.3-1.4-0.2-0.8-0.3-1.6-0.5-2.4l-0.3-1.5c-0.1-0.7-0.3-1.5-0.4-2.2-0.1-0.5-0.2-1.1-0.2-1.6-0.1-0.4-0.1-0.9-0.2-1.3h74.2z m443.6 507.2h-41.5l5.5-68.8h36c19 0 34.4 15.4 34.4 34.4-0.1 19-15.5 34.4-34.4 34.4z m34.3-117.9c-10.6-4.4-22.2-6.8-34.4-6.8H117.5v-96.5h780.7c1.1 0 2 0.9 2 2v101.3z" fill="#ffffff" p-id="2763"></path></svg>