<?xml version="1.0" standalone="no"?><!DOCTYPE svg PUBLIC "-//W3C//DTD SVG 1.1//EN" "http://www.w3.org/Graphics/SVG/1.1/DTD/svg11.dtd"><svg class="icon" style="" viewBox="0 0 1024 1024" version="1.1" xmlns="http://www.w3.org/2000/svg" p-id="2023" xmlns:xlink="http://www.w3.org/1999/xlink" width="200" height="200"><defs><style type="text/css"><![CDATA[
@font-face { font-family: uc-nexus-iconfont; src: url("chrome-extension://pogijhnlcfmcppgimcaccdkmbedjkmhi/res/font_kcuuxxyze2hjjor.woff") format("woff"), url("chrome-extension://pogijhnlcfmcppgimcaccdkmbedjkmhi/res/font_kcuuxxyze2hjjor.ttf") format("truetype"); }

]]></style></defs><path d="M448.478 957.831c-200.092 0-362.903-162.79-362.903-362.901 0-173.287 123.308-323.07 293.203-356.139 0 0 43.341-6.271 92.823-19.276 43.129-11.337 56.516-28.04 69.331-43.752 23.343-28.623 9.077-64.46 9.077-64.46s62.208 12.222 92.628 52.735c28.331 37.734 6.791 98.926-43.655 100.011 118.184 38.981 212.4 177.444 212.4 330.881C811.381 795.041 648.587 957.831 448.478 957.831zM386.917 286.073C240.037 315.175 133.54 444.894 133.54 594.93c0 173.66 141.27 314.954 314.938 314.954 173.653 0 314.943-141.294 314.943-314.954 0-139.27-93.316-263.644-226.904-302.461-2.927-0.831-8.706-2.407-8.745-2.407l-32.177-8.674c0 0 26.706-4.026 51.327-19.662 30.224-19.199 44.786-37.17 51.883-54.032 14.636-34.765-14.045-56.517-14.045-56.517s2.528 32.124-25.722 68.171C518.96 270.472 423.047 281.812 386.917 286.073zM438.507 817.367c-105.284 0-159.352-100.738-173.236-154.006l35.406-9.26c1.369 5.171 34.659 126.671 137.831 126.671 110.299 0 136.783-124.401 137.037-125.66l35.866 7.266C600.551 715.984 550.431 817.367 438.507 817.367zM411.604 500.635l-28.683-5.858c-0.539 2.577-13.827 63.115-68.269 63.115-51.156 0-68.058-61.283-68.75-63.892l-14.155 3.731 14.167-3.696-28.334 7.386c0.916 3.502 23.194 85.747 97.073 85.747C377.479 587.168 405.542 530.562 411.604 500.635zM689.728 500.635l-28.693-5.813c-0.128 0.63-13.412 63.07-68.257 63.07-51.161 0-68.061-61.283-68.756-63.892l-14.156 3.731 14.17-3.696-28.335 7.386c0.914 3.502 23.194 85.747 97.077 85.747C655.598 587.168 683.666 530.562 689.728 500.635zM953.08 112.798l-67.156 75.084 71.856 0c5.819 0 10.21 1.366 13.165 4.095 2.956 2.732 4.431 6.248 4.431 10.543 0 4.121-1.458 7.48-4.367 10.074-2.91 2.599-7.317 3.895-13.229 3.895l-99.395 0c-6.981 0-12.201-1.521-15.646-4.567-3.446-3.04-5.173-7.205-5.173-12.49 0-3.134 1.213-6.289 3.628-9.47 2.42-3.176 7.433-9.019 15.045-17.53 8.061-8.951 15.377-17.058 21.958-24.308 6.584-7.254 12.695-14.037 18.334-20.347 5.641-6.316 10.318-11.667 14.04-16.056 3.713-4.384 6.689-8.141 8.93-11.282l-54.533 0c-7.521 0-13.209-0.672-17.057-2.015-3.851-1.34-5.775-4.878-5.775-10.61 0-4.207 1.452-7.565 4.365-10.075 2.91-2.505 7.05-3.759 12.423-3.759l84.216 0c7.793 0 13.768 1.144 17.932 3.424 4.162 2.283 6.247 6.383 6.247 12.291 0 1.972-0.404 4.009-1.21 6.113-0.808 2.105-1.702 3.828-2.688 5.171-0.985 1.341-2.327 2.978-4.029 4.899C957.69 107.808 955.583 110.112 953.08 112.798zM794.555 186.433l-55.722 62.3 59.617 0c4.835 0 8.478 1.133 10.93 3.399 2.452 2.266 3.675 5.182 3.675 8.748 0 3.418-1.21 6.205-3.625 8.36-2.414 2.155-6.069 3.23-10.979 3.23l-82.466 0c-5.796 0-10.126-1.262-12.983-3.788-2.864-2.526-4.295-5.982-4.295-10.37 0-2.596 1.007-5.216 3.012-7.853 2.011-2.637 6.171-7.483 12.482-14.546 6.686-7.426 12.765-14.152 18.222-20.17 5.463-6.017 10.536-11.646 15.216-16.884 4.675-5.236 8.556-9.678 11.644-13.315 3.082-3.643 5.553-6.761 7.41-9.364l-45.244 0c-6.239 0-10.964-0.558-14.156-1.674-3.195-1.112-4.789-4.049-4.789-8.801 0-3.491 1.204-6.278 3.619-8.358 2.414-2.081 5.852-3.12 10.312-3.12l69.876 0c6.462 0 11.423 0.946 14.87 2.843 3.464 1.893 5.192 5.292 5.192 10.194 0 1.637-0.336 3.327-1.009 5.072-0.662 1.747-1.406 3.177-2.229 4.291-0.813 1.116-1.93 2.47-3.338 4.067C798.381 182.291 796.635 184.203 794.555 186.433z" p-id="2024" fill="#ffffff"></path></svg>