<?xml version="1.0" standalone="no"?><!DOCTYPE svg PUBLIC "-//W3C//DTD SVG 1.1//EN" "http://www.w3.org/Graphics/SVG/1.1/DTD/svg11.dtd"><svg class="icon" style="" viewBox="0 0 1024 1024" version="1.1" xmlns="http://www.w3.org/2000/svg" p-id="1913" xmlns:xlink="http://www.w3.org/1999/xlink" width="200" height="200"><defs><style type="text/css"><![CDATA[
@font-face { font-family: uc-nexus-iconfont; src: url("chrome-extension://pogijhnlcfmcppgimcaccdkmbedjkmhi/res/font_1476274416_922599.woff") format("woff"), url("chrome-extension://pogijhnlcfmcppgimcaccdkmbedjkmhi/res/font_1476274416_922599.ttf") format("truetype"); }

]]></style></defs><path d="M512.001535 65.087391c-193.610556 0-351.146499 157.535943-351.146499 351.146499 0 186.900737 314.659493 518.767124 328.034105 532.778232 6.030343 6.353708 14.392802 9.899464 23.113417 9.899464l0.701988 0c8.968256 0 17.427928-4.186346 23.332405-10.920724l108.953458-124.81368c144.765081-177.326685 218.156602-314.245054 218.156602-406.943292C863.14394 222.623333 705.606974 65.087391 512.001535 65.087391L512.001535 65.087391zM512.001535 575.84612c-88.168062 0-159.610184-71.442122-159.610184-159.611208 0-88.169085 71.442122-159.611208 159.610184-159.611208 88.169085 0 159.612231 71.442122 159.612231 159.611208C671.612743 504.403998 600.17062 575.84612 512.001535 575.84612L512.001535 575.84612zM512.001535 575.84612" p-id="1914" fill="#ffffff"></path></svg>