<?xml version="1.0" standalone="no"?><!DOCTYPE svg PUBLIC "-//W3C//DTD SVG 1.1//EN" "http://www.w3.org/Graphics/SVG/1.1/DTD/svg11.dtd"><svg class="icon" style="" viewBox="0 0 1024 1024" version="1.1" xmlns="http://www.w3.org/2000/svg" p-id="1852" xmlns:xlink="http://www.w3.org/1999/xlink" width="200" height="200"><defs><style type="text/css"><![CDATA[
@font-face { font-family: uc-nexus-iconfont; src: url("chrome-extension://pogijhnlcfmcppgimcaccdkmbedjkmhi/res/font_kcuuxxyze2hjjor.woff") format("woff"), url("chrome-extension://pogijhnlcfmcppgimcaccdkmbedjkmhi/res/font_kcuuxxyze2hjjor.ttf") format("truetype"); }

]]></style></defs><path d="M942.191252 632.587181a22.378321 22.378321 0 0 0-22.378321 22.378321v63.474509h-18.315057V434.459118a22.378321 22.378321 0 0 0-22.378321-22.378321c-139.452106 0-270.902363 29.804727-370.140626 83.9219-103.528507 56.460504-160.545272 133.048709-160.545272 215.65988 0 2.365708 0.370841 4.641903 1.051781 6.780631H278.34795c50.370404-16.332977 86.901414-63.679111 86.901415-119.420311 0-69.216147-56.310249-125.529593-125.529594-125.529594S114.193375 529.803553 114.193375 599.0197c0 55.741201 36.531011 103.090531 86.901414 119.420311H101.405763v-287.257719a22.378321 22.378321 0 1 0-44.756642 0V960.349661a22.378321 22.378321 0 1 0 44.756642 0v-37.304661h818.407168V960.349661a22.378321 22.378321 0 1 0 44.756642 0v-305.380962a22.378321 22.378321 0 0 0-22.378321-22.381518z m-783.241235-33.567481c0-44.539253 36.233699-80.772951 80.772951-80.772952s80.772951 36.233699 80.772952 80.772952-36.233699 80.772951-80.772952 80.772951-80.772951-36.233699-80.772951-80.772951z m234.24028 112.642877c0-65.47577 48.730392-128.109494 137.21747-176.363548 87.51522-47.726565 202.680453-75.216734 326.333465-78.180263v261.324442H392.138516a22.304792 22.304792 0 0 0 1.051781-6.780631zM101.405763 878.288358v-115.088508h818.407168v115.088508h-818.407168z" fill="#ffffff" p-id="1853"></path><path d="M308.766482 314.917324h93.215298L296.448815 384.475539a22.378321 22.378321 0 0 0 12.314471 41.061022h167.831013a22.378321 22.378321 0 1 0 0-44.756642h-93.215297l105.532965-69.558215a22.378321 22.378321 0 0 0-12.314471-41.061022H308.766482a22.378321 22.378321 0 1 0 0 44.756642zM532.549692 127.476507h49.692661l-58.490538 38.55465a15.978121 15.978121 0 0 0 8.797877 29.328388h102.988231a15.984515 15.984515 0 1 0 0-31.96903h-49.692661l58.490538-38.55465a15.978121 15.978121 0 0 0-8.797877-29.328388h-102.988231a15.984515 15.984515 0 1 0 0 31.96903zM780.303281 64.008392h49.711842l-55.869077 36.825126a11.189161 11.189161 0 0 0 6.157235 20.533708h87.0197a11.189161 11.189161 0 1 0 0-22.378322h-49.711842l55.869077-36.825125a11.189161 11.189161 0 0 0-6.157235-20.533708h-87.0197a11.189161 11.189161 0 1 0 0 22.378321z" fill="#ffffff" p-id="1854"></path></svg>