<?xml version="1.0" standalone="no"?><!DOCTYPE svg PUBLIC "-//W3C//DTD SVG 1.1//EN" "http://www.w3.org/Graphics/SVG/1.1/DTD/svg11.dtd"><svg class="icon" style="" viewBox="0 0 1024 1024" version="1.1" xmlns="http://www.w3.org/2000/svg" p-id="1719" xmlns:xlink="http://www.w3.org/1999/xlink" width="200" height="200"><defs><style type="text/css"><![CDATA[
@font-face { font-family: uc-nexus-iconfont; src: url("chrome-extension://pogijhnlcfmcppgimcaccdkmbedjkmhi/res/font_kcuuxxyze2hjjor.woff") format("woff"), url("chrome-extension://pogijhnlcfmcppgimcaccdkmbedjkmhi/res/font_kcuuxxyze2hjjor.ttf") format("truetype"); }

]]></style></defs><path d="M657.651714 333.900464c-24.770914-27.600574-60.175635-43.447469-97.12268-43.447469l-73.72443 0c-36.945846 0-72.351765 15.848094-97.137867 43.447469L270.913746 466.315557c-5.930695 6.621124-5.649728 16.749148 0.58052 23.023959l40.438957 40.67756c3.2649 3.269496 7.587725 5.191107 12.293034 4.873969 4.593002-0.152074 8.914628-2.203578 11.929135-5.690694l85.221722-98.109264 0 432.462553c0 9.245954 7.426258 16.718774 16.587682 16.718774l57.175316 0c9.142839 0 16.583086-7.474019 16.583086-16.718774l0-251.91107 23.974173 0 0 251.913268c0 9.245754 7.421462 16.718774 16.583086 16.718774l57.127356 0c9.161623 0 16.567898-7.474019 16.533926-16.718774L625.941738 431.108673l85.241505 98.093876c3.048479 3.487116 7.391088 5.537421 11.978294 5.689495 4.440927 0.347513 9.029333-1.617263 12.260261-4.87277l40.393395-40.67756c6.279407-6.289998 6.494629-16.402835 0.561735-23.024958L657.651714 333.900464 657.651714 333.900464zM523.683706 266.309162c51.161489 0 92.812844-41.94731 92.812844-93.472898s-41.652354-93.452914-92.812844-93.452914c-51.177876 0-92.810446 41.927326-92.810446 93.452914C430.872061 224.37704 472.50583 266.309162 523.683706 266.309162L523.683706 266.309162zM908.139561 877.112828c0.14508-0.937225 0.244598-1.891036 0.245797-2.869427l0-855.625598c0-10.286093-8.296938-18.618003-18.561849-18.618003L804.380569-0.0002c-10.26631 0-18.601616 8.330711-18.601616 18.639185 0 10.269707 8.31892 18.619202 18.601616 18.619202l66.824736 0 0 176.661901L825.784868 213.920088c-10.30248 0-18.600417 8.354091-18.600417 18.639185 0 10.269707 8.297938 18.622599 18.600417 18.622599l45.419438 0 0 176.640718L825.784868 427.822591c-10.30248 0-18.600417 8.336706-18.600417 18.622799 0 10.284894 8.297938 18.634389 18.600417 18.634389l45.419438 0 0 176.62673L825.784868 641.706509c-10.30248 0-18.600417 8.292142-18.600417 18.619202 0 10.323462 8.297938 18.638986 18.600417 18.638986l45.419438 0 0 137.793245c-44.008005-34.820803-117.459661-52.796337-167.04965-61.811682-17.027718-3.406383-30.650052 6.810568-34.056635 23.838286-3.406383 17.027718 6.810568 30.650052 23.839485 34.056635 66.176472 11.345218 107.148988 27.936497 130.515863 42.785217 18.719719 11.896362 26.14238 22.67285 26.14238 28.732238 0 2.589658-1.05193 5.456687-3.126614 8.52495-19.752065 29.203649-132.73223 76.61484-323.812207 76.61484-211.147781 0-326.938822-54.489537-326.938822-85.139789 0-13.622334 37.463018-51.084353 153.25286-71.517455 17.027718-3.406383 27.244868-17.027718 23.839485-34.056635-3.406583-17.026519-17.027718-27.243669-34.056635-23.838286C264.829978 768.567595 138.822985 802.62423 138.822985 880.953252c0 95.35694 190.712481 143.035909 381.428559 143.035909l0.001199 0.001199c190.71368 0 384.833942-47.678969 388.240325-139.629327C908.491869 881.901268 908.368971 879.487064 908.139561 877.112828z" p-id="1720" fill="#ffffff"></path></svg>