<?xml version="1.0" standalone="no"?><!DOCTYPE svg PUBLIC "-//W3C//DTD SVG 1.1//EN" "http://www.w3.org/Graphics/SVG/1.1/DTD/svg11.dtd"><svg class="icon" style="" viewBox="0 0 1024 1024" version="1.1" xmlns="http://www.w3.org/2000/svg" p-id="4749" xmlns:xlink="http://www.w3.org/1999/xlink" width="200" height="200"><defs><style type="text/css"><![CDATA[
@font-face { font-family: uc-nexus-iconfont; src: url("chrome-extension://pogijhnlcfmcppgimcaccdkmbedjkmhi/res/font_1476274416_922599.woff") format("woff"), url("chrome-extension://pogijhnlcfmcppgimcaccdkmbedjkmhi/res/font_1476274416_922599.ttf") format("truetype"); }

]]></style></defs><path d="M510.389828 954.48988c-175.415149 0-317.653687-139.938146-317.653687-312.580135 0-116.140137 55.114249-233.484705 120.55775-332.545862 18.430768 92.745311 66.025763 159.247934 122.345466 159.247934 72.26793 0 130.813325-108.768239 130.813325-242.904239 0-64.968687-13.942547-123.659391-36.280298-167.238932 11.680017 10.475586 297.905924 269.838681 297.905924 583.440076C828.078307 814.551734 685.839769 954.48988 510.389828 954.48988zM674.635589 505.987053c-2.811022 34.198893-50.406017 166.109202-168.625512 166.109202-49.676399 0-115.442242 11.648294-126.433574 83.035158-5.51562 35.82288 26.424836 124.643811 133.441175 124.643811C717.194894 879.775224 674.635589 505.987053 674.635589 505.987053z" p-id="4750" fill="#ffffff"></path></svg>