<?xml version="1.0" standalone="no"?><!DOCTYPE svg PUBLIC "-//W3C//DTD SVG 1.1//EN" "http://www.w3.org/Graphics/SVG/1.1/DTD/svg11.dtd"><svg class="icon" style="" viewBox="0 0 1024 1024" version="1.1" xmlns="http://www.w3.org/2000/svg" p-id="1826" xmlns:xlink="http://www.w3.org/1999/xlink" width="200" height="200"><defs><style type="text/css"><![CDATA[
@font-face { font-family: uc-nexus-iconfont; src: url("chrome-extension://pogijhnlcfmcppgimcaccdkmbedjkmhi/res/font_kcuuxxyze2hjjor.woff") format("woff"), url("chrome-extension://pogijhnlcfmcppgimcaccdkmbedjkmhi/res/font_kcuuxxyze2hjjor.ttf") format("truetype"); }

]]></style></defs><path d="M827.706 812.156c-257.018 0-465.373-208.355-465.373-465.373 0-132.357 55.258-251.804 143.959-336.543C241.364 23.782 30.72 242.879 30.72 511.175c0 277.027 224.573 501.6 501.6 501.6 170.614 0 321.328-85.184 411.942-215.338C907.012 807.044 867.956 812.156 827.706 812.156zM887.099 32.146l36.759 74.482 82.195 11.944-59.477 57.977 14.041 81.864-73.518-38.651-73.519 38.651 14.042-81.864-59.479-57.977 82.197-11.944L887.099 32.146zM609.849 261.261l28.339 57.419 63.367 9.209-45.853 44.695 10.825 63.111-56.678-29.796-56.677 29.796 10.825-63.111-45.853-44.695 63.367-9.209L609.849 261.261zM831.389 486.981l28.339 57.419 63.367 9.208-45.853 44.695 10.825 63.111-56.678-29.796-56.677 29.796 10.825-63.111-45.853-44.695 63.367-9.208L831.389 486.981z" p-id="1827" fill="#ffffff"></path></svg>