<?xml version="1.0" standalone="no"?><!DOCTYPE svg PUBLIC "-//W3C//DTD SVG 1.1//EN" "http://www.w3.org/Graphics/SVG/1.1/DTD/svg11.dtd"><svg class="icon" style="" viewBox="0 0 1024 1024" version="1.1" xmlns="http://www.w3.org/2000/svg" p-id="2763" xmlns:xlink="http://www.w3.org/1999/xlink" width="200" height="200"><defs><style type="text/css"><![CDATA[
@font-face { font-family: uc-nexus-iconfont; src: url("chrome-extension://pogijhnlcfmcppgimcaccdkmbedjkmhi/res/font_1476274416_922599.woff") format("woff"), url("chrome-extension://pogijhnlcfmcppgimcaccdkmbedjkmhi/res/font_1476274416_922599.ttf") format("truetype"); }

]]></style></defs><path d="M893.3 219c-66.7 94.3-156.1 105.2-252.2 47.6-6.5-3.9-35.6-20-42-23.9-154.7-92.6-309.2-56.3-412.8 90-44 62.2 57.8 121.2 101.3 59.7 53.5-75.6 121.6-97.5 196-73.5-38.1 66.7-71.4 133.1-118.5 227.3-47 94.2-150.9 169.5-250.7 110.6-72-42.4-136.9 61.9-65.1 104.2 136.2 80.3 296 31 377.5-73.4 2.8 1.5 5.8 2.9 9.1 4.1 66.6 23.4 153.9 85.7 180.5 107.8 26.6 22.1 72.3 134.6 99.4 191.2 32.9 68.6 139.2 18.6 106.2-50.3-30.8-64.1-82.4-192.2-122.7-224.6-32.3-26-95-74.3-148.2-101.8 36-70.3 73.5-139.9 112.9-208.2 125.8 38.9 245.3-6.9 330.4-127.2C1038.7 216.4 936.9 157.4 893.3 219zM702.2 252.7c64.2 0 116.2-52.5 116.2-117.2 0-64.7-52-117.2-116.2-117.2C638 18.3 586 70.8 586 135.5 586 200.2 638 252.7 702.2 252.7z" p-id="2764" fill="#ffffff"></path></svg>