<?xml version="1.0" standalone="no"?><!DOCTYPE svg PUBLIC "-//W3C//DTD SVG 1.1//EN" "http://www.w3.org/Graphics/SVG/1.1/DTD/svg11.dtd"><svg class="icon" style="" viewBox="0 0 1024 1024" version="1.1" xmlns="http://www.w3.org/2000/svg" p-id="3931" xmlns:xlink="http://www.w3.org/1999/xlink" width="200" height="200"><defs><style type="text/css"><![CDATA[
@font-face { font-family: uc-nexus-iconfont; src: url("chrome-extension://pogijhnlcfmcppgimcaccdkmbedjkmhi/res/font_1476274416_922599.woff") format("woff"), url("chrome-extension://pogijhnlcfmcppgimcaccdkmbedjkmhi/res/font_1476274416_922599.ttf") format("truetype"); }

]]></style></defs><path d="M576.349928 4.141995l2.476997 0.3 2.320997 0.305c56.696936 7.670991 110.463876 24.630972 159.739821 49.266945l1.963998 1.005999 2.827997 1.464998c68.666923 35.136961 127.124857 84.758905 172.412807 143.822839 45.385949 59.161934 78.203912 128.416856 94.409894 203.889771l0.655999 3.230996 0.402 1.766998c15.544983 75.516915 14.187984 155.732825-7.169992 235.283736-36.549959 136.552847-125.05686 245.291725-238.497733 310.811652-94.611894 54.623939-206.589768 79.157911-320.334641 64.567928l-2.522997-0.355-2.320997-0.299c-113.646873-15.348983-215.528758-68.003924-292.770672-145.286837C57.30151 781.282124 0.000574 653.313268 0.000574 511.973426c0-82.283908 19.385978-160.022821 53.92094-228.928743l0.954999-1.869998 1.565998-3.026997c35.139961-68.652923 84.765905-127.109857 143.989839-172.389807 59.063934-45.334949 128.280856-78.098912 203.655772-94.250894l3.231996-0.701999 1.818998-0.356C463.163055-0.703999 519.502992-3.127996 576.349928 4.141995L576.349928 4.141995zM271.670269 273.557693l10.602988-10.652988-33.625962-33.620962-10.653988 10.600988L271.670269 273.557693 271.670269 273.557693zM750.426733 271.687695l10.652988 10.600988 33.623962-33.620962-10.601988-10.601988L750.426733 271.687695 750.426733 271.687695zM752.298731 750.446159l-10.602988 10.596988 33.669962 33.620962 10.601988-10.600988L752.298731 750.446159 752.298731 750.446159zM273.535267 752.313157l-10.600988-10.653988-33.668962 33.670962 10.595988 10.652988L273.535267 752.313157 273.535267 752.313157zM522.584988 795.020109l-33.572962 0 0 106.359881 33.572962 0L522.584988 795.020109 522.584988 795.020109zM522.584988 130.187854l-33.572962 0 0 106.313881 33.572962 0L522.584988 130.187854 522.584988 130.187854zM785.059694 498.951441l0 33.620962 106.326881 0 0-33.620962L785.059694 498.951441 785.059694 498.951441zM120.159439 498.951441l0 33.620962 106.372881 0 0-33.620962L120.159439 498.951441 120.159439 498.951441zM516.018995 431.560516c-8.024991 0-15.700982 1.161999-22.968974 3.381996-42.056953-85.611904-93.246895-167.441812-151.80883-246.192724-13.229985 7.272992-26.50697 14.592984-39.733955 21.859975 40.891954 91.215898 90.872898 176.071803 149.336833 255.027714-8.88799 12.818986-14.036984 28.367968-14.036984 45.126949 0 43.712951 35.44396 79.153911 79.210911 79.153911 43.719951 0 79.162911-35.43996 79.162911-79.153911 0-5.447994-0.553999-10.751988-1.564998-15.847982 48.615945-43.007952 92.789896-92.684896 131.264853-150.988831-12.468986-11.862987-24.937972-23.777973-37.459958-35.59096-51.040943 38.014957-96.329892 82.080908-136.817847 131.146853C540.151968 434.439513 528.389982 431.560516 516.018995 431.560516L516.018995 431.560516zM919.458543 560.990371l-0.053 0c1.969998-16.103982 2.927997-32.459964 2.927997-49.013945 0-29.887966-3.178996-58.964934-9.23899-87.028902l-0.603999-2.625997-0.305-1.410998c-9.18699-40.236955-24.384973-78.701912-44.83295-114.089872-8.93399-15.548983-18.933979-30.434966-29.886966-44.72395-10.902988-14.186984-22.715975-27.666969-35.34096-40.283955-28.924968-28.925968-62.14593-53.51294-98.599889-72.791918l-1.361998-0.759999-2.220998-1.156999c-25.547971-13.123985-52.911941-23.727973-81.790908-31.500965-17.058981-4.545995-34.123962-7.976991-51.191943-10.296988l-0.602999-0.104-2.932997-0.352c-16.857981-2.119998-34.026962-3.230996-51.496942-3.230996-29.885966 0-59.063934 3.178996-87.135902 9.28999l-2.522997 0.554999-1.415998 0.303c-40.234955 9.18799-78.753912 24.384973-114.096872 44.82995-15.146983 8.78199-29.786967 18.475979-43.719951 29.075967l-0.252 0.199-0.351 0.253-0.812999 0.654999c-14.029984 10.799988-27.362969 22.513975-39.878955 35.031961-27.768969 27.762969-51.600942 59.465933-70.478921 94.245894l-0.403 0.707999-1.415998 2.676997-1.611998 2.925997-0.104 0.305c-12.214986 23.519974-22.312975 48.558946-29.937966 74.910916l-0.098-0.052c-10.552988 36.298959-16.154982 74.763916-16.154982 114.440872 0 113.329873 45.938948 215.956758 120.208865 290.164675 38.869956 38.865956 85.521904 69.962922 137.369846 90.812898l0.052-0.051c14.991983 5.952993 30.541966 11.204987 46.547948 15.445983 16.759981 4.541995 33.618962 7.877991 50.381944 10.248989l1.410998 0.152 0.506999 0.103c14.894983 1.916998 30.037966 3.128996 45.384949 3.432996l-0.052 0.1c76.186915 1.616998 149.943832-18.16998 213.75876-55.022938 90.977898-52.504941 161.905818-139.682843 191.238786-249.168721C913.44355 599.104328 917.129546 580.02135 919.458543 560.990371z" p-id="3932" fill="#ffffff"></path></svg>