<?xml version="1.0" standalone="no"?><!DOCTYPE svg PUBLIC "-//W3C//DTD SVG 1.1//EN" "http://www.w3.org/Graphics/SVG/1.1/DTD/svg11.dtd"><svg class="icon" style="" viewBox="0 0 1185 1024" version="1.1" xmlns="http://www.w3.org/2000/svg" p-id="2493" xmlns:xlink="http://www.w3.org/1999/xlink" width="231.4453125" height="200"><defs><style type="text/css"><![CDATA[
@font-face { font-family: uc-nexus-iconfont; src: url("chrome-extension://pogijhnlcfmcppgimcaccdkmbedjkmhi/res/font_kcuuxxyze2hjjor.woff") format("woff"), url("chrome-extension://pogijhnlcfmcppgimcaccdkmbedjkmhi/res/font_kcuuxxyze2hjjor.ttf") format("truetype"); }

]]></style></defs><path d="M599.667903 420.099996c-56.150022 0-101.664109 45.520346-101.664109 101.665361l0 0.972593 203.32947 0.162725 0-1.135317C701.333264 465.620343 655.82919 420.099996 599.667903 420.099996L599.667903 420.099996zM599.908235 512.402431c-20.41819 0-36.97605-16.559112-36.97605-36.97605 0-20.421945 16.559112-36.981057 36.97605-36.981057 20.434462 0 36.988567 16.559112 36.988567 36.981057C636.896802 495.843319 620.342697 512.402431 599.908235 512.402431L599.908235 512.402431zM450.742294 263.648998l99.821565 180.670687 19.80985-10.953873-99.821565-180.659421c0 0-6.562811-3.204424-13.213242 0C450.692225 255.89329 450.742294 263.648998 450.742294 263.648998L450.742294 263.648998zM517.52825 349.665253c0 0 1.742406 4.706498-1.881347 7.432762-3.625005 2.728767-8.601876-1.617233-8.601876-1.617233l-49.002654-88.950306c0 0-3.120558-6.428876 2.41208-8.497982 4.140717-2.740033 8.059878 2.682453 8.059878 2.682453L517.52825 349.665253 517.52825 349.665253zM406.681463 271.541144l-10.232878 8.402851-39.658503-48.271645 10.252905-8.402851L406.681463 271.541144zM361.505342 320.124469l-7.357658 11.001439-51.955481-34.68038 7.357658-11.001439L361.505342 320.124469zM331.848147 370.60291l-3.805254 12.691272-59.841368-17.933509 3.811512-12.68251L331.848147 370.60291zM1005.18777 0 178.957063 0C80.123112 0-8.0e-06 80.128126-8.0e-06 178.955819l44.740519 666.093369c0 98.822686 80.114357 178.950812 178.948309 178.950812l736.754675 0c98.841462 0 178.955819-80.128126 178.955819-178.950812l44.740519-666.093369C1184.138582 80.128126 1104.022973 0 1005.18777 0L1005.18777 0zM578.383518 869.908509l-53.212216-75.639429-24.465027 23.852932 0 51.786497-19.777305 0L480.92897 720.459678l19.777305 0 0 74.109817 74.208704-74.109817 26.810765 0-62.689049 60.556105 65.442851 88.892727L578.383518 869.908509 578.383518 869.908509zM754.228792 849.109794c-9.717166 7.751952-19.743508 13.582502-30.074021 17.484139-10.330512 3.91165-20.930146 5.868102-31.801406 5.868102-14.679016 0-28.018683-3.146845-40.015246-9.434275-11.991556-6.287431-21.046557-15.373725-27.166256-27.271401-6.11344-11.890166-9.173916-25.173505-9.173916-39.856276 0-14.542578 3.044203-28.121325 9.122595-40.727479 6.082147-12.601147 14.831727-21.965326 26.251243-28.085025 11.415761-6.119699 24.56892-9.173916 39.45322-9.173916 10.808673 0 20.577159 1.751168 29.307963 5.245993 8.732056 3.503587 15.577757 8.377817 20.537104 14.632702 4.965606 6.254886 8.737063 14.404888 11.318126 24.466279l-17.835874 4.893005c-2.244349-7.610507-5.038206-13.593768-8.364048-17.946027-3.327093-4.346-8.088667-7.828308-14.272204-10.445671-6.181034-2.618615-13.050518-3.927923-20.595935-3.927923-9.03247 0-16.85452 1.380656-23.44612 4.133206-6.590349 2.753802-11.910193 6.371296-15.952024 10.853735-4.043082 4.487445-7.182416 9.414247-9.428016 14.786665-3.809009 9.240257-5.712887 19.267851-5.712887 30.067762 0 13.323394 2.295669 24.465027 6.887008 33.434911 4.586332 8.976143 11.260546 15.635336 20.028902 19.98384 8.772111 4.353511 18.081213 6.524007 27.936069 6.524007 8.561821 0 16.920861-1.649778 25.07587-4.944326 8.152505-3.294549 14.336043-6.808149 18.553115-10.549565l0-27.830924-43.940665 0 0-17.532956 63.309907-0.102642L754.231296 849.109794 754.228792 849.109794zM971.985681 550.324787l-755.337831-2.797612c0 0-0.187759-33.576356-0.187759-35.440179 0-208.780746 169.232395-407.816788 377.984351-407.816788 208.748201 0 377.974337 169.232395 377.974337 377.993113C972.418779 485.118512 971.985681 550.324787 971.985681 550.324787L971.985681 550.324787zM971.985681 550.324787" p-id="2494" fill="#ffffff"></path></svg>