<?xml version="1.0" standalone="no"?><!DOCTYPE svg PUBLIC "-//W3C//DTD SVG 1.1//EN" "http://www.w3.org/Graphics/SVG/1.1/DTD/svg11.dtd"><svg class="icon" style="" viewBox="0 0 1024 1024" version="1.1" xmlns="http://www.w3.org/2000/svg" p-id="3918" xmlns:xlink="http://www.w3.org/1999/xlink" width="200" height="200"><defs><style type="text/css"><![CDATA[
@font-face { font-family: uc-nexus-iconfont; src: url("chrome-extension://pogijhnlcfmcppgimcaccdkmbedjkmhi/res/font_1476274416_922599.woff") format("woff"), url("chrome-extension://pogijhnlcfmcppgimcaccdkmbedjkmhi/res/font_1476274416_922599.ttf") format("truetype"); }

]]></style></defs><path d="M293.977485 89.511807c18.341931 13.080902 38.260577 30.217734 53.587105 52.652755 15.416778 22.381933 43.90384 51.362715 43.90384 51.362715L623.420859 193.527278c0 0 24.500148-25.179675 39.423206-45.108939 14.721324-19.865559 27.319125-38.818002 55.153204-56.613126 23.279122-14.668236 35.282336-51.362715 5.483998-63.153577-25.954761-10.235381-36.487436 10.888365-66.482199 11.44579-29.591294 0.499028-33.721547-24.425824-62.946533-35.340733-29.294001-11.137879-45.01869-1.359055-62.511211 15.326528-17.338566 16.78645-23.985193 17.58808-23.985193 17.58808s-20.667189-12.098773-32.112978-24.84522c-11.291834-12.804844-40.883128-17.439433-60.281512-5.29819-24.648794 15.708762-30.047852 27.627036-50.555776 31.911243C341.310815 44.222369 304.51016 15.947658 284.145573 32.50583 263.887163 49.016222 275.725804 76.1867 293.977485 89.511807L293.977485 89.511807zM767.99562 396.010514c-86.353067-72.481152-132.773282-141.341697-132.773282-141.341697L382.390369 254.668816c0 0-48.442871 72.082992-125.919611 139.223483C167.611934 471.114217 95.576722 594.70857 122.694112 742.797762c24.096678 131.759299 149.453556 281.19162 387.07579 281.19162 230.147433 0 365.134488-123.695221 390.892823-274.789198C932.159882 564.612939 841.485446 457.704169 767.99562 396.010514L767.99562 396.010514zM632.610405 786.144178c-14.577986-0.047779-92.001638 0-92.001638 0s0.360999 20.916703 0.360999 31.858155c0 13.362269-12.608418 28.18446-30.403542 27.929638-17.795124-0.249514-30.99282-8.621504-32.452742-28.837444-0.456557-9.17362-0.31322-30.950349-0.31322-30.950349L384.805877 786.144178c-15.013308 0-25.455733-17.083743-24.946088-29.580677 0.44594-12.703977 11.748392-25.965379 24.946088-25.965379L477.959527 730.598122l0.153955-63.76409c0 0-75.51779 0.557425-89.522425 0.557425-14.317854 0-24.240016-9.885-24.80275-22.387242-0.302602-12.650889 11.48826-36.216686 24.80275-36.216686l89.867498 0 0.153955-22.859726c0 0-71.78039-75.96373-80.141762-84.128676-8.276431-8.212726-18.61268-27.016523-5.245102-42.141316 12.703977-14.51428 36.344098-3.981606 47.529756 6.752803 12.401375 11.897038 69.810822 71.074318 69.810822 71.074318s66.938757-62.075889 80.752275-73.590693c13.654254-11.344922 32.463359-12.19964 42.895167 0.652983 10.532675 12.502242 6.296246 24.648794-10.628233 40.171748-16.993494 15.374307-82.472328 82.212197-82.472328 82.212197l0 20.821144 86.353067 0c19.451472 0.552116 30.483174 22.477492 30.14341 34.326751-0.456557 13.505607-8.117167 24.744353-29.686853 24.494839l-86.353067 0.249514-0.456557 63.058018 84.73388 0c22.074023 0 31.30073 11.599745 31.757288 26.666141C658.1033 771.433471 647.321111 786.298133 632.610405 786.144178L632.610405 786.144178zM632.610405 786.144178" p-id="3919" fill="#2aa515"></path></svg>