<?xml version="1.0" standalone="no"?><!DOCTYPE svg PUBLIC "-//W3C//DTD SVG 1.1//EN" "http://www.w3.org/Graphics/SVG/1.1/DTD/svg11.dtd"><svg class="icon" style="" viewBox="0 0 1024 1024" version="1.1" xmlns="http://www.w3.org/2000/svg" p-id="4989" xmlns:xlink="http://www.w3.org/1999/xlink" width="200" height="200"><defs><style type="text/css"><![CDATA[
@font-face { font-family: uc-nexus-iconfont; src: url("chrome-extension://pogijhnlcfmcppgimcaccdkmbedjkmhi/res/font_1476274416_922599.woff") format("woff"), url("chrome-extension://pogijhnlcfmcppgimcaccdkmbedjkmhi/res/font_1476274416_922599.ttf") format("truetype"); }

]]></style></defs><path d="M557.025984 630.186749c-5.344728 37.242206-9.877975 74.698283-16.313547 111.77062-2.76088 15.903202-16.990976 61.014632 16.313547 49.91176 20.467147-6.822382 130.300648-80.010265 130.300648-80.010265L557.025984 630.186749z" p-id="4990" fill="#2aa515"></path><path d="M577.491085 597.442998 705.40436 677.943426 927.461805 351.167988 789.948895 259.413238Z" p-id="4991" fill="#2aa515"></path><path d="M812.245713 233.599316c0.063445 0.039909 130.4654 82.883709 130.4654 82.883709s49.115628-32.233122 26.089192-82.885755c-27.475771-19.627013-56.444547-55.951313-92.9029-57.690934-11.904121-0.567935-22.917966 3.901867-32.188096 11.19497C838.944795 190.848653 808.082904 230.954069 812.245713 233.599316z" p-id="4992" fill="#2aa515"></path><path d="M781.528108 101.642958c-12.059664-12.394285-29.116131-20.448728-46.111201-23.164582-13.57211-2.168386-26.200732-1.694595-39.820937-1.228991-19.774369 0.676405-39.599903-0.535189-59.382459-0.433882-52.504818 0.270153-105.005542 0.236384-157.511383 0.323365-58.290591 0.096191-116.590392 0.011256-174.880983-0.132006-46.976918-0.115634-93.962022-0.090051-140.938939 0.034792-19.404955 0.052189-38.811957-0.00307-58.216913-0.00307-28.043706 0-47.493687 31.857569-51.562353 55.731302-2.927679 17.180288-1.74576 33.290197-0.902556 50.582025 1.165546 23.916712-0.130983 47.8938-0.194428 71.821769-0.077771 29.475312 0.805342 58.942437 0.731664 88.419795-0.083911 34.003442-0.237407 67.995627 0.063445 101.998045 0.313132 35.378765 0.217964 70.753437 0.215918 106.133226-0.002047 34.226522 0.388856 68.452022 0.446162 102.678544 0.051165 31.009248-0.034792 62.016449 0.14224 93.024673 0.143263 25.172309 0.182149 50.343595 0.192382 75.516928 0.007163 16.911158 0.187265 33.822316 0.204661 50.733475 0.029676 29.938869 13.299911 72.102155 50.664913 72.103178 1.222851 0 633.888048 0 633.905444 0 18.384719 0 38.002522-21.318538 46.787606-35.607986 11.809977-19.208481 7.214309-42.928718 7.17133-64.184835-0.091074-44.287669-0.479931-88.588641-0.220011-132.88245 0.149403-25.78834 0.013303-51.581796 0.013303-77.370135-3.287883 4.798283-6.52767 9.632381-9.832949 14.419408-14.231119 20.60734-28.655643 41.11849-42.649356 61.884442-6.662747 9.888208-12.420891 20.373003-20.703531 29.057803-11.645225 12.21009-25.859971 18.84623-40.835034 25.941835-41.679261 19.745716-82.310657 41.908482-123.464963 62.761416-24.727171 12.529361-49.456389 25.057699-74.125231 37.703717 3.827165-1.950422 5.64558-30.913057 6.306636-34.926464 8.589632-52.088332 20.439518-103.682407 28.625968-155.827021 3.710508-23.633257 7.696286-48.77589 13.239536-70.970378 2.075265-8.311293 3.746324-16.538675 6.726192-24.736381 6.299473-17.333784 15.003715-32.94739 24.964578-48.279586 18.053168-27.788903 36.357046-55.417147 54.443983-83.186607 22.213931-34.105772 44.624337-68.081585 66.841338-102.186334 20.915355-32.108279 41.889039-64.178695 62.804395-96.284927 7.55814-11.599176 16.138562-22.467711 23.749914-34.018791 4.374634-6.640234 8.255011-13.577227 11.900028-20.641109 3.367701-6.526647 13.812587-20.84884 13.503549-28.024264-0.299829-6.960529 0.028653-13.921058 0.164752-20.884656C794.299993 130.989333 793.791409 114.245997 781.528108 101.642958zM385.547495 667.710364c0 5.650697-4.581342 10.233062-10.233062 10.233062L156.338163 677.943426c-5.65172 0-10.233062-4.582365-10.233062-10.233062l0-23.269983c0-5.650697 4.581342-10.233062 10.233062-10.233062l218.97627 0c5.65172 0 10.233062 4.582365 10.233062 10.233062L385.547495 667.710364zM519.593444 474.062969c0 5.65172-10.852162 10.233062-24.241101 10.233062L169.323918 484.296031c-13.387915 0-24.241101-4.581342-24.241101-10.233062l0-19.440771c0-5.65172 10.853186-10.233062 24.241101-10.233062l326.028425 0c13.388938 0 24.241101 4.581342 24.241101 10.233062L519.593444 474.062969zM660.719648 285.678438c0 5.65172-4.582365 10.233062-10.233062 10.233062l-495.2802 0c-5.65172 0-10.233062-4.581342-10.233062-10.233062l0-24.218588c0-5.65172 4.581342-10.233062 10.233062-10.233062l495.2802 0c5.650697 0 10.233062 4.581342 10.233062 10.233062L660.719648 285.678438z" p-id="4993" fill="#2aa515"></path></svg>