<?xml version="1.0" standalone="no"?><!DOCTYPE svg PUBLIC "-//W3C//DTD SVG 1.1//EN" "http://www.w3.org/Graphics/SVG/1.1/DTD/svg11.dtd"><svg width="200" height="200" viewBox="0 0 200 200" version="1.1" xmlns="http://www.w3.org/2000/svg" xmlns:xlink="http://www.w3.org/1999/xlink"><defs><style type="text/css"><![CDATA[
@font-face { font-family: ifont; src: url("http://at.alicdn.com/t/font_1442373896_4754455.eot?#iefix") format("embedded-opentype"), url("http://at.alicdn.com/t/font_1442373896_4754455.woff") format("woff"), url("http://at.alicdn.com/t/font_1442373896_4754455.ttf") format("truetype"), url("http://at.alicdn.com/t/font_1442373896_4754455.svg#ifont") format("svg"); }
@font-face { font-family: uc-nexus-iconfont; src: url("chrome-extension://pogijhnlcfmcppgimcaccdkmbedjkmhi/res/font_1476274416_922599.woff") format("woff"), url("chrome-extension://pogijhnlcfmcppgimcaccdkmbedjkmhi/res/font_1476274416_922599.ttf") format("truetype"); }

]]></style></defs><g class="transform-group"><g transform="scale(0.1953125, 0.1953125)"><path d="M920.3 543.3C945.1 513 960 474.3 960 432c0-97.2-78.8-176-176-176-16.2 0-31.9 2.2-46.8 6.3-5.3-51.4-27.9-99.1-65-136.1C629.5 83.5 572.7 60 512.3 60s-117.2 23.5-159.9 66.2c-37.1 37.1-59.7 84.8-65 136.3 0 0 0 0 0 0-15.1-4.2-31-6.5-47.4-6.5-97.2 0-176 78.8-176 176 0 42.2 14.9 81 39.7 111.3C34.9 608.9 0 670.7 0 727.5l0 60.4C0 820.5 26.5 847 59.1 847L96 847l0 1c0 26.5 21.6 48.1 48.1 48.1l233.8 0L459 896.1l106 0 79 0 235.9 0c26.5 0 48.1-21.6 48.1-48.1l0-1 36.9 0c32.6 0 59.1-26.5 59.1-59.1l0-60.4C1024 670.7 989.1 608.9 920.3 543.3zM863.2 352.8C884.4 374 896 402.1 896 432s-11.6 58-32.8 79.2c-2.5 2.5-5.2 5-7.9 7.2l-1.3 1.1c-6.2 5-12.9 9.3-19.9 12.8-0.1 0-0.2 0.1-0.2 0.1-1.1 0.6-2.3 1.1-3.4 1.6-0.3 0.1-0.6 0.3-0.9 0.4-1 0.5-2.1 0.9-3.2 1.3-0.5 0.2-1.1 0.4-1.6 0.7-0.9 0.4-1.8 0.7-2.7 1-0.7 0.3-1.4 0.5-2.2 0.7-0.5 0.2-1 0.3-1.4 0.5-1.2 0.4-2.3 0.7-3.5 1.1-0.4 0.1-0.8 0.2-1.3 0.4-1.1 0.3-2.3 0.6-3.4 0.9-0.5 0.1-1.1 0.3-1.6 0.4-0.7 0.2-1.4 0.3-2.2 0.5-0.7 0.1-1.4 0.3-2 0.4-0.9 0.2-1.8 0.3-2.7 0.5-0.8 0.1-1.6 0.2-2.4 0.3-0.5 0.1-1 0.1-1.5 0.2-1.2 0.1-2.4 0.3-3.6 0.4-0.4 0-0.8 0.1-1.2 0.1-1.3 0.1-2.6 0.2-3.9 0.2-0.3 0-0.6 0-0.8 0-1.4 0.1-2.9 0.1-4.3 0.1-11.3 0-22.3-1.7-32.8-4.9-0.4-0.6-0.8-1.2-1.3-1.8-23.2-33.4-52-62.8-83.6-85.7 2-1.8 3.9-3.7 5.9-5.6 31.7-31.7 52.8-71.2 61.6-114.2 15.4-7.7 32.5-11.8 50.2-11.8C813.9 320 842 331.7 863.2 352.8zM512.3 124c89.4 0 162.1 72.7 162.1 162.1 0 72-47.1 133.1-112.1 154.2-0.7 0.2-1.5 0.5-2.2 0.7-0.6 0.2-1.2 0.4-1.9 0.6-1 0.3-2.1 0.6-3.1 0.9-0.5 0.1-0.9 0.2-1.4 0.4-3.2 0.8-6.5 1.6-9.7 2.3-0.1 0-0.1 0-0.2 0-1.6 0.3-3.2 0.6-4.8 0.9-0.2 0-0.3 0.1-0.5 0.1-3.4 0.6-6.8 1-10.3 1.3 0 0-0.1 0-0.1 0-1.6 0.2-3.1 0.3-4.7 0.4-0.4 0-0.8 0.1-1.2 0.1-1.3 0.1-2.5 0.1-3.8 0.2-0.4 0-0.9 0-1.3 0-1.6 0-3.3 0.1-4.9 0.1-1.6 0-3.3 0-4.9-0.1-0.4 0-0.9 0-1.3 0-1.3 0-2.5-0.1-3.8-0.2-0.4 0-0.8 0-1.2-0.1-1.6-0.1-3.1-0.2-4.7-0.4 0 0-0.1 0-0.1 0-3.4-0.3-6.9-0.8-10.3-1.4-0.2 0-0.4-0.1-0.5-0.1-1.6-0.3-3.2-0.6-4.8-0.9-0.1 0-0.1 0-0.2 0-3.3-0.7-6.5-1.4-9.7-2.3-0.5-0.1-0.9-0.2-1.4-0.4-1-0.3-2.1-0.6-3.1-0.9-0.6-0.2-1.2-0.4-1.9-0.6-0.7-0.2-1.5-0.5-2.2-0.7-1.9-0.6-3.7-1.2-5.6-1.9 0 0-0.1 0-0.1 0-62-22.8-106.4-82.4-106.4-152.2C350.2 196.7 422.9 124 512.3 124zM286.2 286.1C286.2 286.1 286.2 286.1 286.2 286.1L286.2 286.1C286.2 286.1 286.2 286.1 286.2 286.1zM286.5 274c0 0.1 0 0.2 0 0.3C286.5 274.2 286.5 274.1 286.5 274zM286.3 279.5c0 0.2 0 0.5 0 0.7C286.3 280 286.3 279.8 286.3 279.5zM288.1 315.3c0-0.1 0-0.1 0-0.2C288.1 315.2 288.1 315.2 288.1 315.3zM287.4 309.8c0-0.1 0-0.3 0-0.4C287.4 309.5 287.4 309.6 287.4 309.8zM286.9 304.3c0-0.3 0-0.5-0.1-0.8C286.9 303.8 286.9 304 286.9 304.3zM286.6 298.8c0-0.3 0-0.7-0.1-1C286.5 298.1 286.6 298.4 286.6 298.8zM286.3 293.1c0-0.4 0-0.8 0-1.2C286.3 292.3 286.3 292.7 286.3 293.1zM160.8 352.8C182 331.7 210.1 320 240 320c18 0 35.3 4.2 50.9 12.2 8.8 42.8 29.9 82.2 61.5 113.8 1.9 1.9 3.8 3.7 5.8 5.6-31.6 22.9-60.5 52.3-83.9 85.7-0.4 0.6-0.8 1.2-1.3 1.8-10.6 3.3-21.7 4.9-33.1 4.9-1.4 0-2.9 0-4.3-0.1-0.3 0-0.6 0-0.8 0-1.3-0.1-2.6-0.1-3.9-0.2-0.4 0-0.8-0.1-1.2-0.1-1.2-0.1-2.4-0.2-3.6-0.4-0.5-0.1-1-0.1-1.5-0.2-0.8-0.1-1.6-0.2-2.4-0.3-0.9-0.1-1.8-0.3-2.7-0.5-0.7-0.1-1.4-0.3-2-0.4-0.7-0.1-1.4-0.3-2.2-0.5-0.5-0.1-1.1-0.2-1.6-0.4-1.1-0.3-2.3-0.6-3.4-0.9-0.4-0.1-0.9-0.2-1.3-0.4-1.2-0.3-2.3-0.7-3.5-1.1-0.5-0.2-1-0.3-1.4-0.5-0.7-0.2-1.4-0.5-2.2-0.7-0.9-0.3-1.8-0.7-2.7-1-0.5-0.2-1.1-0.4-1.6-0.7-1.1-0.4-2.1-0.9-3.2-1.3-0.3-0.1-0.6-0.3-0.9-0.4-1.2-0.5-2.3-1.1-3.4-1.6-0.1 0-0.2-0.1-0.2-0.1-7-3.5-13.6-7.8-19.9-12.8l-1.3-1.1c-2.7-2.3-5.4-4.7-7.9-7.2C139.7 490.1 128 461.9 128 432S139.7 374 160.8 352.8zM252.2 573.5C252.2 573.5 252.2 573.5 252.2 573.5 252.2 573.5 252.2 573.5 252.2 573.5zM250 577.8C250 577.9 249.9 577.9 250 577.8 249.9 577.9 250 577.9 250 577.8zM247.8 582.2C247.8 582.2 247.8 582.2 247.8 582.2 247.8 582.2 247.8 582.2 247.8 582.2zM245.8 586.5C245.7 586.5 245.7 586.5 245.8 586.5 245.7 586.5 245.7 586.5 245.8 586.5zM243.8 590.8C243.8 590.8 243.8 590.9 243.8 590.8 243.8 590.9 243.8 590.8 243.8 590.8zM241.9 595.1C241.9 595.1 241.9 595.2 241.9 595.1 241.9 595.2 241.9 595.1 241.9 595.1zM240.1 599.4C240.1 599.4 240.1 599.5 240.1 599.4 240.1 599.5 240.1 599.4 240.1 599.4zM64 783l0-55.6c0-38.8 31.4-88.9 88.9-142.5 22.5 12.8 48.1 20.9 75.4 22.7 0.6 0 1.2 0.1 1.8 0.1 1 0.1 2 0.1 3.1 0.2 0.9 0 1.9 0.1 2.8 0.1 0.3 0 0.6 0 0.9 0-8.3 22.6-12.8 44.4-12.8 64.1l0 96c0 26.2 12.7 49.5 32.2 64l-90.4 0c0.9-2.2 1.4-4.6 1.4-7.1l0.8-100.7c0.1-11-8.8-20.1-19.8-20.2-0.1 0-0.1 0-0.2 0-11 0-19.9 8.8-20 19.8l-0.5 59.1L64 783zM459 832l-54.3 0 1.4-144.9c0.1-11-8.8-20.1-19.8-20.2-11.1-0.1-20.1 8.8-20.2 19.8l-1 97.1-61.4 0c-8.7 0-15.8-7.1-15.8-15.8l0-96c0-26.7 14.5-63.4 38.8-98.2 24.1-34.5 55.1-63.7 88.5-83.4 26.1 12.4 54.5 19.7 83.9 21.3 0.2 0 0.5 0 0.7 0 1.7 0.1 3.4 0.2 5.1 0.2 0.4 0 0.8 0 1.1 0 2 0.1 4.1 0.1 6.1 0.1 2 0 4.1 0 6.1-0.1 0.4 0 0.7 0 1.1 0 1.7-0.1 3.4-0.1 5.2-0.2 0.2 0 0.4 0 0.7 0 29.4-1.7 57.8-8.9 83.9-21.3 33.3 19.7 64.2 48.8 88.2 83.3 24.2 34.8 38.6 71.5 38.6 98.2l0 96c0 8.7-7.1 15.8-15.8 15.8l-58.4 0 0.4-96.8c0.1-11-8.9-20-19.9-20.1 0 0-0.1 0-0.1 0-11 0-19.9 8.9-20 19.9L621.6 832 565 832 459 832zM960 783l-64.5 0 0.3-58.9c0.1-11-8.8-20.1-19.9-20.1 0 0-0.1 0-0.1 0-11 0-19.9 8.9-20 19.9L855.2 832l-87.4 0c19.5-14.6 32.2-37.8 32.2-64l0-96c0-19.6-4.4-41.5-12.7-64.1 0.3 0 0.5 0 0.8 0 0.9 0 1.9 0 2.8-0.1 1 0 2-0.1 3.1-0.2 0.6 0 1.2-0.1 1.8-0.1 27.3-1.8 52.9-9.8 75.4-22.7 57.5 53.6 88.9 103.7 88.9 142.5L960.1 783z" fill="#11cd6e"></path></g></g></svg>