<?xml version="1.0" standalone="no"?><!DOCTYPE svg PUBLIC "-//W3C//DTD SVG 1.1//EN" "http://www.w3.org/Graphics/SVG/1.1/DTD/svg11.dtd"><svg width="200" height="200" viewBox="0 0 200 200" version="1.1" xmlns="http://www.w3.org/2000/svg" xmlns:xlink="http://www.w3.org/1999/xlink"><defs><style type="text/css"><![CDATA[
@font-face { font-family: ifont; src: url("http://at.alicdn.com/t/font_1442373896_4754455.eot?#iefix") format("embedded-opentype"), url("http://at.alicdn.com/t/font_1442373896_4754455.woff") format("woff"), url("http://at.alicdn.com/t/font_1442373896_4754455.ttf") format("truetype"), url("http://at.alicdn.com/t/font_1442373896_4754455.svg#ifont") format("svg"); }
@font-face { font-family: uc-nexus-iconfont; src: url("chrome-extension://pogijhnlcfmcppgimcaccdkmbedjkmhi/res/font_1476274416_922599.woff") format("woff"), url("chrome-extension://pogijhnlcfmcppgimcaccdkmbedjkmhi/res/font_1476274416_922599.ttf") format("truetype"); }

]]></style></defs><g class="transform-group"><g transform="scale(0.1953125, 0.1953125)"><path d="M297.888 445.304c19.456-18.352 143.832-142.32 143.832-142.32l71.928 0L405.784 501.632l0 213.472c0 0-188.544-0.04-215.768 0-27.232 0.032-34.048 70.648 0 71.16 34.04 0.496 287.672 0 287.672 0l0.016-213.488 143.84 121.616c0 0-0.088 197.504 0 234.184 0.08 36.688 72.32 32.12 71.92 0-0.384-32.112 0-284.632 0-284.632l-143.848-127.44 35.968-86.048 35.968 35.584c0 0 180.2-4.896 215.76 0 35.568 4.912 45.984-70.496 0-71.16-45.984-0.664-179.8 0-179.8 0L657.512 216.984 405.784 216.984c-1.32-1.216-142.784 160.872-158.232 185.016C235.48 424.24 276.032 465.912 297.888 445.304zM765.376 145.824c0-39.248-32.224-71.16-71.912-71.16-39.696 0-71.92 31.904-71.92 71.16 0 39.272 32.224 71.16 71.92 71.16C733.16 216.984 765.376 185.096 765.376 145.824" fill="#00bb9c"></path></g></g></svg>